#!OML:ASF I:\Actors\actors\Patient Classification 2\Patient 1\Session 1\actor1.ASF
:FULLY-SPECIFIED
:DEGREES
437
root -0.666484 18.1188 5.99353 3.69005 -19.6338 -1.85619
lowerback 0.387954 -3.00069 1.8014
upperback -2.90626 -3.92092 2.15862
thorax -3.17411 -1.97752 1.33585
lowerneck -11.6249 -0.181695 5.69199
upperneck 21.3392 -2.20283 2.79345
head 8.56992 -0.339618 -0.254432
rclavicle 6.13748e-015 -2.5842e-014
rhumerus -33.8518 52.6077 -91.3769
rradius 106.511
rwrist -16.5205
rhand -4.28086 -28.8266
rfingers 7.12502
rthumb 21.4842 -57.6552
lclavicle 6.13748e-015 -2.5842e-014
lhumerus 3.91454 -0.792529 62.3247
lradius 111.153
lwrist 66.6681
lhand -33.2368 -17.9752
lfingers 7.12502
lthumb -6.44284 11.9068
rfemur 10.0813 11.0724 14.6133
rtibia -16.984
rfoot -2.33544 -9.5263
rtoes -0.720889
lfemur 11.1165 8.78341 -13.2398
ltibia 7.95139e-015
lfoot -16.2936 15.2036
ltoes -3.40071
438
root -0.670433 18.1184 5.98881 3.57638 -18.919 -1.88457
lowerback 0.428665 -2.84264 2.03838
upperback -2.89719 -3.70234 2.18898
thorax -3.20281 -1.87394 1.23069
lowerneck -11.7728 -0.424028 5.21736
upperneck 21.2955 -2.43274 2.75333
head 8.57909 -0.487207 -0.214153
rclavicle 3.47376e-014 1.19271e-015
rhumerus -34.8817 51.5593 -92.9972
rradius 105.748
rwrist -15.3623
rhand -6.7571 -26.479
rfingers 7.12502
rthumb 19.1044 -55.5607
lclavicle 3.47376e-014 1.19271e-015
lhumerus 3.33316 -1.22594 61.932
lradius 112.558
lwrist 65.7705
lhand -32.9112 -18.5316
lfingers 7.12502
lthumb -6.12853 11.3598
rfemur 10.2916 10.8468 14.7432
rtibia -16.8204
rfoot -2.73203 -9.76849
rtoes -0.936695
lfemur 11.0503 8.07999 -13.1847
ltibia -1.59028e-014
lfoot -16.123 15.3347
ltoes -4.16865
439
root -0.673581 18.1189 5.98446 3.48474 -18.1544 -1.8845
lowerback 0.456097 -2.68842 2.30261
upperback -2.93866 -3.48892 2.14963
thorax -3.28085 -1.77502 1.03985
lowerneck -11.7546 -0.658549 4.79553
upperneck 21.2101 -2.66846 2.79699
head 8.54646 -0.628312 -0.154189
rclavicle 3.43152e-014 -5.56597e-015
rhumerus -35.9938 50.3659 -94.6813
rradius 104.913
rwrist -14.014
rhand -4.23314 -27.0312
rfingers 7.12502
rthumb 21.5301 -55.8546
lclavicle 3.43152e-014 -5.56597e-015
lhumerus 2.68068 -1.75318 61.5677
lradius 113.881
lwrist 64.6637
lhand -32.7703 -19.4394
lfingers 7.12502
lthumb -5.99242 10.4559
rfemur 10.4682 10.4663 14.8319
rtibia -16.6528
rfoot -3.08064 -9.93854
rtoes -0.858961
lfemur 10.9457 7.3301 -13.1644
ltibia -1.74931e-014
lfoot -16.0347 15.4257
ltoes -4.45832
440
root -0.676986 18.1191 5.97926 3.36173 -17.3626 -1.84336
lowerback 0.554714 -2.54825 2.49034
upperback -3.00559 -3.29207 2.11638
thorax -3.41861 -1.6829 0.902283
lowerneck -11.7058 -0.873407 4.36904
upperneck 21.1824 -2.86846 2.79893
head 8.52861 -0.755948 -0.10345
rclavicle 6.5102e-015 1.78906e-014
rhumerus -37.1465 49.2575 -96.2828
rradius 104.031
rwrist -12.7533
rhand -4.41038 -26.3881
rfingers 7.12502
rthumb 21.3598 -55.2308
lclavicle 6.5102e-015 1.78906e-014
lhumerus 1.90201 -2.31711 61.3097
lradius 115.168
lwrist 63.2208
lhand -32.8531 -20.0696
lfingers 7.12502
lthumb -6.07244 9.82339
rfemur 10.6699 10.0647 14.8798
rtibia -16.4857
rfoot -3.46813 -10.1132
rtoes -0.605794
lfemur 10.8557 6.54955 -13.1864
ltibia 1.90833e-014
lfoot -15.9579 15.5256
ltoes -4.68599
441
root -0.680816 18.1199 5.97288 3.24016 -16.5985 -1.78403
lowerback 0.597558 -2.39801 2.61173
upperback -3.02018 -3.08635 2.0951
thorax -3.46482 -1.58401 0.807963
lowerneck -11.8027 -1.05955 4.03307
upperneck 21.2186 -3.03811 2.70615
head 8.55779 -0.868034 -0.0974504
rclavicle -6.48038e-014 -6.36111e-015
rhumerus -38.0662 48.3776 -97.5425
rradius 103.187
rwrist -11.945
rhand -7.59147 -24.1452
rfingers 7.12502
rthumb 18.3019 -53.3042
lclavicle -6.48038e-014 -6.36111e-015
lhumerus 1.12836 -2.77292 61.1103
lradius 116.428
lwrist 61.9419
lhand -32.7139 -20.4794
lfingers 7.12502
lthumb -5.93796 9.41743
rfemur 10.8556 9.76375 14.9081
rtibia -16.3164
rfoot -3.90425 -10.3524
rtoes -0.220433
lfemur 10.7556 5.79599 -13.2284
ltibia -6.36111e-015
lfoot -15.7833 15.6544
ltoes -5.35495
442
root -0.683925 18.1203 5.96864 3.12228 -15.8896 -1.68809
lowerback 0.531576 -2.22519 2.67371
upperback -2.96881 -2.85798 2.0856
thorax -3.37629 -1.47103 0.750338
lowerneck -11.9041 -1.25845 3.58624
upperneck 21.1258 -3.21282 2.69645
head 8.54755 -0.98591 -0.0454014
rclavicle -1.2275e-014 -1.90833e-014
rhumerus -38.7932 47.5186 -98.4946
rradius 102.316
rwrist -11.1111
rhand -7.2454 -23.9151
rfingers 7.12502
rthumb 18.6348 -53.0426
lclavicle -1.2275e-014 -1.90833e-014
lhumerus 0.391967 -3.08189 60.989
lradius 117.668
lwrist 61.0384
lhand -32.3964 -20.8483
lfingers 7.12502
lthumb -5.63145 9.05687
rfemur 11.021 9.48351 14.8825
rtibia -16.1445
rfoot -4.32012 -10.5674
rtoes 0.400126
lfemur 10.664 5.0977 -13.3158
ltibia 1.90833e-014
lfoot -15.656 15.7512
ltoes -5.93461
443
root -0.686059 18.1204 5.96599 3.01343 -15.1729 -1.613
lowerback 0.593491 -2.04004 2.81256
upperback -3.01148 -2.60406 2.04667
thorax -3.46169 -1.34934 0.627624
lowerneck -11.8681 -1.51938 3.11188
upperneck 21.0041 -3.46383 2.70317
head 8.50396 -1.14277 0.00985867
rclavicle -1.18525e-014 -2.14687e-014
rhumerus -39.747 46.4452 -99.5284
rradius 101.344
rwrist -9.71585
rhand -2.95625 -25.3306
rfingers 7.12502
rthumb 22.756 -54.0086
lclavicle -1.18525e-014 -2.14687e-014
lhumerus -0.513209 -3.54932 60.8603
lradius 118.82
lwrist 60.0209
lhand -32.2297 -21.197
lfingers 7.12502
lthumb -5.47054 8.7124
rfemur 11.1906 9.16714 14.8724
rtibia -15.9736
rfoot -4.70206 -10.7428
rtoes 0.503476
lfemur 11.329 4.37195 -13.2828
ltibia -1.45296
lfoot -14.8845 16.0972
ltoes -6.46285
